<mxfile host="app.diagrams.net" agent="Mozilla/5.0 (Windows NT 10.0; Win64; x64) AppleWebKit/537.36 (KHTML, like Gecko) Chrome/134.0.0.0 Safari/537.36" version="26.1.1">
  <diagram name="Strona-1" id="TZ76bEDe0aQPjwssyd5C">
    <mxGraphModel dx="473" dy="241" grid="1" gridSize="10" guides="1" tooltips="1" connect="1" arrows="1" fold="1" page="1" pageScale="1" pageWidth="827" pageHeight="1169" math="0" shadow="0">
      <root>
        <mxCell id="0" />
        <mxCell id="1" parent="0" />
        <mxCell id="Oy1skn9-pua4Sc-E3qb9-1" value="" style="rounded=0;whiteSpace=wrap;html=1;fillColor=none;" vertex="1" parent="1">
          <mxGeometry x="400" y="280" width="60" height="90" as="geometry" />
        </mxCell>
        <mxCell id="Oy1skn9-pua4Sc-E3qb9-2" value="NCS" style="text;html=1;align=center;verticalAlign=middle;whiteSpace=wrap;rounded=0;" vertex="1" parent="1">
          <mxGeometry x="400" y="280" width="60" height="30" as="geometry" />
        </mxCell>
        <mxCell id="Oy1skn9-pua4Sc-E3qb9-3" value="SCK" style="text;html=1;align=center;verticalAlign=middle;whiteSpace=wrap;rounded=0;" vertex="1" parent="1">
          <mxGeometry x="400" y="300" width="60" height="30" as="geometry" />
        </mxCell>
        <mxCell id="Oy1skn9-pua4Sc-E3qb9-4" value="MOSI" style="text;html=1;align=center;verticalAlign=middle;whiteSpace=wrap;rounded=0;" vertex="1" parent="1">
          <mxGeometry x="400" y="320" width="60" height="30" as="geometry" />
        </mxCell>
        <mxCell id="Oy1skn9-pua4Sc-E3qb9-5" value="MISO" style="text;html=1;align=center;verticalAlign=middle;whiteSpace=wrap;rounded=0;" vertex="1" parent="1">
          <mxGeometry x="400" y="340" width="60" height="30" as="geometry" />
        </mxCell>
        <mxCell id="Oy1skn9-pua4Sc-E3qb9-6" value="SPI1" style="text;html=1;align=center;verticalAlign=middle;whiteSpace=wrap;rounded=0;fontSize=20;" vertex="1" parent="1">
          <mxGeometry x="390" y="250" width="60" height="30" as="geometry" />
        </mxCell>
      </root>
    </mxGraphModel>
  </diagram>
</mxfile>
